<?xml version="1.0" encoding="UTF-8" standalone="no"?>
<!DOCTYPE svg PUBLIC "-//W3C//DTD SVG 1.1//EN"
 "http://www.w3.org/Graphics/SVG/1.1/DTD/svg11.dtd">
<!-- Generated by graphviz version 2.40.1 (20161225.0304)
 -->
<!-- Title: dependencies Pages: 1 -->
<svg width="1022pt" height="211pt"
 viewBox="0.00 0.00 1022.00 211.00" xmlns="http://www.w3.org/2000/svg" xmlns:xlink="http://www.w3.org/1999/xlink">
<g id="graph0" class="graph" transform="scale(1 1) rotate(0) translate(4 207)">
<title>dependencies</title>
<polygon fill="#ffffff" stroke="transparent" points="-4,4 -4,-207 1018,-207 1018,4 -4,4"/>
<text text-anchor="start" x="486.0091" y="-42.4" font-family="sans-serif" font-weight="bold" font-size="14.00" fill="#000000">Legend</text>
<polygon fill="#ffffb3" stroke="transparent" points="273,-10 273,-30 293,-30 293,-10 273,-10"/>
<text text-anchor="start" x="296.629" y="-15.4" font-family="sans-serif" font-size="14.00" fill="#000000"> &#160;Declarations</text>
<polygon fill="#8dd3c7" stroke="transparent" points="386,-10 386,-30 406,-30 406,-10 386,-10"/>
<text text-anchor="start" x="409.7251" y="-15.4" font-family="sans-serif" font-size="14.00" fill="#000000"> &#160;Module</text>
<polygon fill="#80b1d3" stroke="transparent" points="472,-10 472,-30 492,-30 492,-10 472,-10"/>
<text text-anchor="start" x="495.7812" y="-15.4" font-family="sans-serif" font-size="14.00" fill="#000000"> &#160;Bootstrap</text>
<polygon fill="#fdb462" stroke="transparent" points="569,-10 569,-30 589,-30 589,-10 569,-10"/>
<text text-anchor="start" x="592.6732" y="-15.4" font-family="sans-serif" font-size="14.00" fill="#000000"> &#160;Providers</text>
<polygon fill="#fb8072" stroke="transparent" points="665,-10 665,-30 685,-30 685,-10 665,-10"/>
<text text-anchor="start" x="688.7258" y="-15.4" font-family="sans-serif" font-size="14.00" fill="#000000"> &#160;Exports</text>
<g id="clust1" class="cluster">
<title>cluster_ReservationsModule</title>
<polygon fill="none" stroke="#000000" stroke-dasharray="1,5" points="8,-70 8,-195 1006,-195 1006,-70 8,-70"/>
</g>
<g id="clust2" class="cluster">
<title>cluster_ReservationsModule_declarations</title>
<polygon fill="none" stroke="#000000" points="16,-78 16,-130 998,-130 998,-78 16,-78"/>
</g>
<!-- ReservationsAddComponent -->
<g id="node1" class="node">
<title>ReservationsAddComponent</title>
<polygon fill="#ffffb3" stroke="#000000" points="989.7506,-122 812.2494,-122 812.2494,-86 989.7506,-86 989.7506,-122"/>
<text text-anchor="middle" x="901" y="-99.8" font-family="Times,serif" font-size="14.00" fill="#000000">ReservationsAddComponent</text>
</g>
<!-- ReservationsModule -->
<g id="node6" class="node">
<title>ReservationsModule</title>
<polygon fill="#8dd3c7" stroke="#000000" points="591.8613,-187 588.8613,-191 567.8613,-191 564.8613,-187 460.1387,-187 460.1387,-151 591.8613,-151 591.8613,-187"/>
<text text-anchor="middle" x="526" y="-164.8" font-family="Times,serif" font-size="14.00" fill="#000000">ReservationsModule</text>
</g>
<!-- ReservationsAddComponent&#45;&gt;ReservationsModule -->
<g id="edge1" class="edge">
<title>ReservationsAddComponent&#45;&gt;ReservationsModule</title>
<path fill="none" stroke="#000000" d="M901,-122.2843C901,-143.3211 901,-175 901,-175 901,-175 602.1793,-175 602.1793,-175"/>
<polygon fill="#000000" stroke="#000000" points="602.1793,-171.5001 592.1793,-175 602.1792,-178.5001 602.1793,-171.5001"/>
</g>
<!-- ReservationsComponent -->
<g id="node2" class="node">
<title>ReservationsComponent</title>
<polygon fill="#ffffb3" stroke="#000000" points="793.6442,-122 640.3558,-122 640.3558,-86 793.6442,-86 793.6442,-122"/>
<text text-anchor="middle" x="717" y="-99.8" font-family="Times,serif" font-size="14.00" fill="#000000">ReservationsComponent</text>
</g>
<!-- ReservationsComponent&#45;&gt;ReservationsModule -->
<g id="edge2" class="edge">
<title>ReservationsComponent&#45;&gt;ReservationsModule</title>
<path fill="none" stroke="#000000" d="M717,-122.0225C717,-139.3734 717,-163 717,-163 717,-163 601.9988,-163 601.9988,-163"/>
<polygon fill="#000000" stroke="#000000" points="601.9989,-159.5001 591.9988,-163 601.9988,-166.5001 601.9989,-159.5001"/>
</g>
<!-- ReservationsDetailsComponent -->
<g id="node3" class="node">
<title>ReservationsDetailsComponent</title>
<polygon fill="#ffffb3" stroke="#000000" points="622.7962,-122 429.2038,-122 429.2038,-86 622.7962,-86 622.7962,-122"/>
<text text-anchor="middle" x="526" y="-99.8" font-family="Times,serif" font-size="14.00" fill="#000000">ReservationsDetailsComponent</text>
</g>
<!-- ReservationsDetailsComponent&#45;&gt;ReservationsModule -->
<g id="edge3" class="edge">
<title>ReservationsDetailsComponent&#45;&gt;ReservationsModule</title>
<path fill="none" stroke="#000000" d="M526,-122.1061C526,-122.1061 526,-140.991 526,-140.991"/>
<polygon fill="#000000" stroke="#000000" points="522.5001,-140.9909 526,-150.991 529.5001,-140.991 522.5001,-140.9909"/>
</g>
<!-- ReservationsListComponent -->
<g id="node4" class="node">
<title>ReservationsListComponent</title>
<polygon fill="#ffffb3" stroke="#000000" points="411.9227,-122 236.0773,-122 236.0773,-86 411.9227,-86 411.9227,-122"/>
<text text-anchor="middle" x="324" y="-99.8" font-family="Times,serif" font-size="14.00" fill="#000000">ReservationsListComponent</text>
</g>
<!-- ReservationsListComponent&#45;&gt;ReservationsModule -->
<g id="edge4" class="edge">
<title>ReservationsListComponent&#45;&gt;ReservationsModule</title>
<path fill="none" stroke="#000000" d="M324,-122.0225C324,-139.3734 324,-163 324,-163 324,-163 450.1372,-163 450.1372,-163"/>
<polygon fill="#000000" stroke="#000000" points="450.1372,-166.5001 460.1372,-163 450.1371,-159.5001 450.1372,-166.5001"/>
</g>
<!-- ReservationsUpdateComponent -->
<g id="node5" class="node">
<title>ReservationsUpdateComponent</title>
<polygon fill="#ffffb3" stroke="#000000" points="218.0702,-122 23.9298,-122 23.9298,-86 218.0702,-86 218.0702,-122"/>
<text text-anchor="middle" x="121" y="-99.8" font-family="Times,serif" font-size="14.00" fill="#000000">ReservationsUpdateComponent</text>
</g>
<!-- ReservationsUpdateComponent&#45;&gt;ReservationsModule -->
<g id="edge5" class="edge">
<title>ReservationsUpdateComponent&#45;&gt;ReservationsModule</title>
<path fill="none" stroke="#000000" d="M121,-122.2843C121,-143.3211 121,-175 121,-175 121,-175 450.0284,-175 450.0284,-175"/>
<polygon fill="#000000" stroke="#000000" points="450.0284,-178.5001 460.0284,-175 450.0283,-171.5001 450.0284,-178.5001"/>
</g>
</g>
</svg>
