<?xml version="1.0" encoding="UTF-8" standalone="no"?>
<!DOCTYPE svg PUBLIC "-//W3C//DTD SVG 1.1//EN"
 "http://www.w3.org/Graphics/SVG/1.1/DTD/svg11.dtd">
<!-- Generated by graphviz version 2.40.1 (20161225.0304)
 -->
<!-- Title: dependencies Pages: 1 -->
<svg width="1450pt" height="276pt"
 viewBox="0.00 0.00 1450.00 276.00" xmlns="http://www.w3.org/2000/svg" xmlns:xlink="http://www.w3.org/1999/xlink">
<g id="graph0" class="graph" transform="scale(1 1) rotate(0) translate(4 272)">
<title>dependencies</title>
<polygon fill="#ffffff" stroke="transparent" points="-4,4 -4,-272 1446,-272 1446,4 -4,4"/>
<text text-anchor="start" x="700.0091" y="-42.4" font-family="sans-serif" font-weight="bold" font-size="14.00" fill="#000000">Legend</text>
<polygon fill="#ffffb3" stroke="transparent" points="487,-10 487,-30 507,-30 507,-10 487,-10"/>
<text text-anchor="start" x="510.629" y="-15.4" font-family="sans-serif" font-size="14.00" fill="#000000"> &#160;Declarations</text>
<polygon fill="#8dd3c7" stroke="transparent" points="600,-10 600,-30 620,-30 620,-10 600,-10"/>
<text text-anchor="start" x="623.7251" y="-15.4" font-family="sans-serif" font-size="14.00" fill="#000000"> &#160;Module</text>
<polygon fill="#80b1d3" stroke="transparent" points="686,-10 686,-30 706,-30 706,-10 686,-10"/>
<text text-anchor="start" x="709.7812" y="-15.4" font-family="sans-serif" font-size="14.00" fill="#000000"> &#160;Bootstrap</text>
<polygon fill="#fdb462" stroke="transparent" points="783,-10 783,-30 803,-30 803,-10 783,-10"/>
<text text-anchor="start" x="806.6732" y="-15.4" font-family="sans-serif" font-size="14.00" fill="#000000"> &#160;Providers</text>
<polygon fill="#fb8072" stroke="transparent" points="879,-10 879,-30 899,-30 899,-10 879,-10"/>
<text text-anchor="start" x="902.7258" y="-15.4" font-family="sans-serif" font-size="14.00" fill="#000000"> &#160;Exports</text>
<g id="clust1" class="cluster">
<title>cluster_PagesModule</title>
<polygon fill="none" stroke="#000000" stroke-dasharray="1,5" points="8,-70 8,-260 1434,-260 1434,-70 8,-70"/>
</g>
<g id="clust2" class="cluster">
<title>cluster_PagesModule_declarations</title>
<polygon fill="none" stroke="#000000" points="158,-143 158,-195 1426,-195 1426,-143 158,-143"/>
</g>
<g id="clust10" class="cluster">
<title>cluster_PagesModule_PagesComponent_providers</title>
<polygon fill="none" stroke="#000000" points="306,-78 306,-130 416,-130 416,-78 306,-78"/>
</g>
<g id="clust12" class="cluster">
<title>cluster_PagesModule_imports</title>
<polygon fill="none" stroke="#000000" points="16,-143 16,-195 150,-195 150,-143 16,-143"/>
</g>
<!-- BackTopComponent -->
<g id="node1" class="node">
<title>BackTopComponent</title>
<polygon fill="#ffffb3" stroke="#000000" points="1418.1513,-187 1285.8487,-187 1285.8487,-151 1418.1513,-151 1418.1513,-187"/>
<text text-anchor="middle" x="1352" y="-164.8" font-family="Times,serif" font-size="14.00" fill="#000000">BackTopComponent</text>
</g>
<!-- PagesModule -->
<g id="node10" class="node">
<title>PagesModule</title>
<polygon fill="#8dd3c7" stroke="#000000" points="747.2064,-252 744.2064,-256 723.2064,-256 720.2064,-252 654.7936,-252 654.7936,-216 747.2064,-216 747.2064,-252"/>
<text text-anchor="middle" x="701" y="-229.8" font-family="Times,serif" font-size="14.00" fill="#000000">PagesModule</text>
</g>
<!-- BackTopComponent&#45;&gt;PagesModule -->
<g id="edge1" class="edge">
<title>BackTopComponent&#45;&gt;PagesModule</title>
<path fill="none" stroke="#000000" d="M1352,-187.0109C1352,-209.4852 1352,-245 1352,-245 1352,-245 757.2964,-245 757.2964,-245"/>
<polygon fill="#000000" stroke="#000000" points="757.2965,-241.5001 747.2964,-245 757.2964,-248.5001 757.2965,-241.5001"/>
</g>
<!-- BlankComponent -->
<g id="node2" class="node">
<title>BlankComponent</title>
<polygon fill="#ffffb3" stroke="#000000" points="1267.2744,-187 1152.7256,-187 1152.7256,-151 1267.2744,-151 1267.2744,-187"/>
<text text-anchor="middle" x="1210" y="-164.8" font-family="Times,serif" font-size="14.00" fill="#000000">BlankComponent</text>
</g>
<!-- BlankComponent&#45;&gt;PagesModule -->
<g id="edge2" class="edge">
<title>BlankComponent&#45;&gt;PagesModule</title>
<path fill="none" stroke="#000000" d="M1210,-187.1289C1210,-207.5724 1210,-238 1210,-238 1210,-238 757.5197,-238 757.5197,-238"/>
<polygon fill="#000000" stroke="#000000" points="757.5197,-234.5001 747.5197,-238 757.5197,-241.5001 757.5197,-234.5001"/>
</g>
<!-- BreadcrumbComponent -->
<g id="node3" class="node">
<title>BreadcrumbComponent</title>
<polygon fill="#ffffb3" stroke="#000000" points="1134.0253,-187 983.9747,-187 983.9747,-151 1134.0253,-151 1134.0253,-187"/>
<text text-anchor="middle" x="1059" y="-164.8" font-family="Times,serif" font-size="14.00" fill="#000000">BreadcrumbComponent</text>
</g>
<!-- BreadcrumbComponent&#45;&gt;PagesModule -->
<g id="edge3" class="edge">
<title>BreadcrumbComponent&#45;&gt;PagesModule</title>
<path fill="none" stroke="#000000" d="M1059,-187.2667C1059,-205.5552 1059,-231 1059,-231 1059,-231 757.4352,-231 757.4352,-231"/>
<polygon fill="#000000" stroke="#000000" points="757.4353,-227.5001 747.4352,-231 757.4352,-234.5001 757.4353,-227.5001"/>
</g>
<!-- FooterComponent -->
<g id="node4" class="node">
<title>FooterComponent</title>
<polygon fill="#ffffb3" stroke="#000000" points="965.8809,-187 848.1191,-187 848.1191,-151 965.8809,-151 965.8809,-187"/>
<text text-anchor="middle" x="907" y="-164.8" font-family="Times,serif" font-size="14.00" fill="#000000">FooterComponent</text>
</g>
<!-- FooterComponent&#45;&gt;PagesModule -->
<g id="edge4" class="edge">
<title>FooterComponent&#45;&gt;PagesModule</title>
<path fill="none" stroke="#000000" d="M907,-187.0091C907,-203.0494 907,-224 907,-224 907,-224 757.2304,-224 757.2304,-224"/>
<polygon fill="#000000" stroke="#000000" points="757.2305,-220.5001 747.2304,-224 757.2304,-227.5001 757.2305,-220.5001"/>
</g>
<!-- HeaderComponent -->
<g id="node5" class="node">
<title>HeaderComponent</title>
<polygon fill="#ffffb3" stroke="#000000" points="829.7437,-187 708.2563,-187 708.2563,-151 829.7437,-151 829.7437,-187"/>
<text text-anchor="middle" x="769" y="-164.8" font-family="Times,serif" font-size="14.00" fill="#000000">HeaderComponent</text>
</g>
<!-- HeaderComponent&#45;&gt;PagesModule -->
<g id="edge5" class="edge">
<title>HeaderComponent&#45;&gt;PagesModule</title>
<path fill="none" stroke="#000000" d="M727.6157,-187.1061C727.6157,-187.1061 727.6157,-205.991 727.6157,-205.991"/>
<polygon fill="#000000" stroke="#000000" points="724.1158,-205.9909 727.6157,-215.991 731.1158,-205.991 724.1158,-205.9909"/>
</g>
<!-- MenuComponent -->
<g id="node6" class="node">
<title>MenuComponent</title>
<polygon fill="#ffffb3" stroke="#000000" points="689.9916,-187 576.0084,-187 576.0084,-151 689.9916,-151 689.9916,-187"/>
<text text-anchor="middle" x="633" y="-164.8" font-family="Times,serif" font-size="14.00" fill="#000000">MenuComponent</text>
</g>
<!-- MenuComponent&#45;&gt;PagesModule -->
<g id="edge6" class="edge">
<title>MenuComponent&#45;&gt;PagesModule</title>
<path fill="none" stroke="#000000" d="M672.4463,-187.1061C672.4463,-187.1061 672.4463,-205.991 672.4463,-205.991"/>
<polygon fill="#000000" stroke="#000000" points="668.9464,-205.9909 672.4463,-215.991 675.9464,-205.991 668.9464,-205.9909"/>
</g>
<!-- NavbarComponent -->
<g id="node7" class="node">
<title>NavbarComponent</title>
<polygon fill="#ffffb3" stroke="#000000" points="558.0297,-187 435.9703,-187 435.9703,-151 558.0297,-151 558.0297,-187"/>
<text text-anchor="middle" x="497" y="-164.8" font-family="Times,serif" font-size="14.00" fill="#000000">NavbarComponent</text>
</g>
<!-- NavbarComponent&#45;&gt;PagesModule -->
<g id="edge7" class="edge">
<title>NavbarComponent&#45;&gt;PagesModule</title>
<path fill="none" stroke="#000000" d="M497,-187.0091C497,-203.0494 497,-224 497,-224 497,-224 644.7092,-224 644.7092,-224"/>
<polygon fill="#000000" stroke="#000000" points="644.7093,-227.5001 654.7092,-224 644.7092,-220.5001 644.7093,-227.5001"/>
</g>
<!-- PagesComponent -->
<g id="node8" class="node">
<title>PagesComponent</title>
<polygon fill="#ffffb3" stroke="#000000" points="417.9888,-187 304.0112,-187 304.0112,-151 417.9888,-151 417.9888,-187"/>
<text text-anchor="middle" x="361" y="-164.8" font-family="Times,serif" font-size="14.00" fill="#000000">PagesComponent</text>
</g>
<!-- PagesComponent&#45;&gt;PagesModule -->
<g id="edge8" class="edge">
<title>PagesComponent&#45;&gt;PagesModule</title>
<path fill="none" stroke="#000000" d="M361,-187.2667C361,-205.5552 361,-231 361,-231 361,-231 644.7922,-231 644.7922,-231"/>
<polygon fill="#000000" stroke="#000000" points="644.7923,-234.5001 654.7922,-231 644.7922,-227.5001 644.7923,-234.5001"/>
</g>
<!-- SearchComponent -->
<g id="node9" class="node">
<title>SearchComponent</title>
<polygon fill="#ffffb3" stroke="#000000" points="285.9201,-187 166.0799,-187 166.0799,-151 285.9201,-151 285.9201,-187"/>
<text text-anchor="middle" x="226" y="-164.8" font-family="Times,serif" font-size="14.00" fill="#000000">SearchComponent</text>
</g>
<!-- SearchComponent&#45;&gt;PagesModule -->
<g id="edge10" class="edge">
<title>SearchComponent&#45;&gt;PagesModule</title>
<path fill="none" stroke="#000000" d="M226,-187.1289C226,-207.5724 226,-238 226,-238 226,-238 644.5901,-238 644.5901,-238"/>
<polygon fill="#000000" stroke="#000000" points="644.5902,-241.5001 654.5901,-238 644.5901,-234.5001 644.5902,-241.5001"/>
</g>
<!-- AppState -->
<g id="node11" class="node">
<title>AppState</title>
<ellipse fill="#fdb462" stroke="#000000" cx="361" cy="-104" rx="46.9477" ry="18"/>
<text text-anchor="middle" x="361" y="-99.8" font-family="Times,serif" font-size="14.00" fill="#000000">AppState</text>
</g>
<!-- AppState&#45;&gt;PagesComponent -->
<g id="edge9" class="edge">
<title>AppState&#45;&gt;PagesComponent</title>
<path fill="none" stroke="#000000" d="M361,-122.1061C361,-122.1061 361,-140.991 361,-140.991"/>
<polygon fill="#000000" stroke="#000000" points="357.5001,-140.9909 361,-150.991 364.5001,-140.991 357.5001,-140.9909"/>
</g>
<!-- DirectivesModule -->
<g id="node12" class="node">
<title>DirectivesModule</title>
<polygon fill="#8dd3c7" stroke="#000000" points="141.5772,-187 138.5772,-191 117.5772,-191 114.5772,-187 24.4228,-187 24.4228,-151 141.5772,-151 141.5772,-187"/>
<text text-anchor="middle" x="83" y="-164.8" font-family="Times,serif" font-size="14.00" fill="#000000">DirectivesModule</text>
</g>
<!-- DirectivesModule&#45;&gt;PagesModule -->
<g id="edge11" class="edge">
<title>DirectivesModule&#45;&gt;PagesModule</title>
<path fill="none" stroke="#000000" d="M83,-187.0109C83,-209.4852 83,-245 83,-245 83,-245 644.8023,-245 644.8023,-245"/>
<polygon fill="#000000" stroke="#000000" points="644.8023,-248.5001 654.8023,-245 644.8023,-241.5001 644.8023,-248.5001"/>
</g>
</g>
</svg>
